<?xml version="1.0" encoding="UTF-8" standalone="no"?>
<svg
   xmlns:dc="http://purl.org/dc/elements/1.1/"
   xmlns:cc="http://creativecommons.org/ns#"
   xmlns:rdf="http://www.w3.org/1999/02/22-rdf-syntax-ns#"
   xmlns:svg="http://www.w3.org/2000/svg"
   xmlns="http://www.w3.org/2000/svg"
   id="svg861"
   version="1.1"
   viewBox="0 0 195.219 101.242">
  <metadata
     id="metadata865">
    <rdf:RDF>
      <cc:Work
         rdf:about="">
        <dc:format>image/svg+xml</dc:format>
        <dc:type
           rdf:resource="http://purl.org/dc/dcmitype/StillImage" />
        <dc:title></dc:title>
      </cc:Work>
    </rdf:RDF>
  </metadata>
  <defs
     id="defs843">
    <style
       id="style841">.a,.d{fill:#fff;}.a{stroke:#404040;}.a,.c{stroke-width:3px;}.b{fill:gray;font-size:17px;font-family:Montserrat-SemiBold, Montserrat;font-weight:600;}.c{fill:#1c75bc;stroke:#252a2e;}.d{fill-rule:evenodd;}</style>
  </defs>
  <g
     id="g859"
     transform="translate(-1353.596 -590.563)">
    <g
       id="g851"
       transform="translate(183 281)">
      <path
         id="path845"
         transform="translate(1225.5 311.063)"
         d="M7.117,46.186q-.126.1-.258.2l-1.374,1.04S6.1,46.959,7.117,46.186Zm.8-12.7H5a5,5,0,0,1-5-5V5A5,5,0,0,1,5,0H133.815a5,5,0,0,1,5,5V28.483a5,5,0,0,1-5,5H23.858c-4.215,3.2-13.083,9.926-16.741,12.7C12.179,42.11,9.8,36.487,7.914,33.483Z"
         class="a" />
      <text
         id="text849"
         transform="translate(1236 333)"
         class="b">
        <tspan
           id="tspan847"
           y="0"
           x="0">it's mooning!</tspan>
      </text>
    </g>
    <g
       id="g857"
       transform="translate(1355.096 637.096)">
      <circle
         id="circle853"
         r="26.604"
         cy="26.604"
         cx="26.604"
         class="c" />
      <path
         id="path855"
         transform="translate(3.56 6.489)"
         d="M40.622,15.08,37.233,25.69s-2.09,5.289-7.063,5.289H6.195l1.71-5.289H29.632l3.42-10.61h-21.7L13.036,9.79H36.885C42.111,9.79,40.622,15.08,40.622,15.08ZM7.05,17.93H19.909l-1.647,4.909H5.371Z"
         class="d" />
    </g>
  </g>
  <g
     transform="matrix(0.78837742,0,0,0.78341928,2.6697995,48.015021)"
     id="g871">
    <path
       style="fill:#f7931a"
       d="M 63.033,39.744 C 58.759,56.887 41.396,67.32 24.251,63.045 7.113,58.771 -3.32,41.407 0.956,24.265 5.228,7.12 22.591,-3.314 39.731,0.96 56.875,5.234 67.307,22.6 63.033,39.744 Z"
       id="path867" />
    <path
       style="fill:#ffffff"
       d="M 46.103,27.444 C 46.74,23.186 43.498,20.897 39.065,19.37 l 1.438,-5.768 -3.511,-0.875 -1.4,5.616 c -0.923,-0.23 -1.871,-0.447 -2.813,-0.662 l 1.41,-5.653 -3.509,-0.875 -1.439,5.766 c -0.764,-0.174 -1.514,-0.346 -2.242,-0.527 l 0.004,-0.018 -4.842,-1.209 -0.934,3.75 c 0,0 2.605,0.597 2.55,0.634 1.422,0.355 1.679,1.296 1.636,2.042 l -1.638,6.571 c 0.098,0.025 0.225,0.061 0.365,0.117 -0.117,-0.029 -0.242,-0.061 -0.371,-0.092 l -2.296,9.205 c -0.174,0.432 -0.615,1.08 -1.609,0.834 0.035,0.051 -2.552,-0.637 -2.552,-0.637 l -1.743,4.019 4.569,1.139 c 0.85,0.213 1.683,0.436 2.503,0.646 l -1.453,5.834 3.507,0.875 1.439,-5.772 c 0.958,0.26 1.888,0.5 2.798,0.726 l -1.434,5.745 3.511,0.875 1.453,-5.823 c 5.987,1.133 10.489,0.676 12.384,-4.739 1.527,-4.36 -0.076,-6.875 -3.226,-8.515 2.294,-0.529 4.022,-2.038 4.483,-5.155 z m -8.022,11.249 c -1.085,4.36 -8.426,2.003 -10.806,1.412 l 1.928,-7.729 c 2.38,0.594 10.012,1.77 8.878,6.317 z m 1.086,-11.312 c -0.99,3.966 -7.1,1.951 -9.082,1.457 l 1.748,-7.01 c 1.982,0.494 8.365,1.416 7.334,5.553 z"
       id="path869" />
  </g>
</svg>
