<?xml version="1.0" encoding="UTF-8" standalone="no"?>
<svg
   xmlns:dc="http://purl.org/dc/elements/1.1/"
   xmlns:cc="http://creativecommons.org/ns#"
   xmlns:rdf="http://www.w3.org/1999/02/22-rdf-syntax-ns#"
   xmlns:svg="http://www.w3.org/2000/svg"
   xmlns="http://www.w3.org/2000/svg"
   id="svg1832"
   version="1.1"
   viewBox="0 0 199.715 84.242">
  <metadata
     id="metadata1836">
    <rdf:RDF>
      <cc:Work
         rdf:about="">
        <dc:format>image/svg+xml</dc:format>
        <dc:type
           rdf:resource="http://purl.org/dc/dcmitype/StillImage" />
        <dc:title></dc:title>
      </cc:Work>
    </rdf:RDF>
  </metadata>
  <defs
     id="defs1802">
    <style
       id="style1800">.a{fill:#627eea;}.a,.f{stroke:#404040;stroke-width:3px;}.b{fill:#c5c6dd;}.c,.f{fill:#fff;}.d{fill:#939dc3;}.e{fill:#ccd1d9;}.g{fill:gray;font-size:17px;font-family:Montserrat-SemiBold, Montserrat;font-weight:600;}</style>
  </defs>
  <g
     id="g1830"
     transform="translate(-1157.1 -321.563)">
    <g
       id="g1820"
       transform="translate(1158.6 351.55)">
      <ellipse
         id="ellipse1804"
         ry="26.377"
         rx="26.377"
         cy="26.377"
         cx="26.377"
         class="a" />
      <g
         id="g1818"
         transform="translate(14.837 6.594)">
        <path
           id="path1806"
           transform="translate(4.863)"
           d="M7.5,0V14.623l12.359,5.523Z"
           class="b" />
        <path
           id="path1808"
           d="M12.361,0,0,20.145l12.361-5.523Z"
           class="c" />
        <path
           id="path1810"
           transform="translate(4.863 8.831)"
           d="M7.5,20.791v9.936l12.368-17.11Z"
           class="b" />
        <path
           id="path1812"
           transform="translate(0 8.831)"
           d="M12.361,30.726V20.789L0,13.616Z"
           class="c" />
        <path
           id="path1814"
           transform="translate(4.863 5.754)"
           d="M7.5,21.568l12.359-7.176L7.5,8.872Z"
           class="d" />
        <path
           id="path1816"
           transform="translate(0 5.754)"
           d="M0,14.391l12.361,7.176V8.872Z"
           class="e" />
      </g>
    </g>
    <g
       id="g1828"
       transform="translate(-9 12)">
      <path
         id="path1822"
         transform="translate(1225.5 311.063)"
         d="M7.117,46.186q-.126.1-.258.2l-1.374,1.04S6.1,46.959,7.117,46.186Zm.8-12.7H5a5,5,0,0,1-5-5V5A5,5,0,0,1,5,0H133.815a5,5,0,0,1,5,5V28.483a5,5,0,0,1-5,5H23.858c-4.215,3.2-13.083,9.926-16.741,12.7C12.179,42.11,9.8,36.487,7.914,33.483Z"
         class="f" />
      <text
         id="text1826"
         transform="translate(1236 333)"
         class="g">
        <tspan
           id="tspan1824"
           y="0"
           x="0">should I sell?</tspan>
      </text>
    </g>
  </g>
  <style
     type="text/css"
     id="style2381">.st0{fill:#FFFFFF;} .st1{fill:none;stroke:#FFFFFF;stroke-width:4;stroke-linecap:round;stroke-linejoin:round;stroke-miterlimit:10;}</style>
  <ellipse
     cx="27.777262"
     cy="56.464737"
     rx="24.964376"
     ry="24.964375"
     id="path2399"
     style="opacity:1;fill:#090909;fill-opacity:1;stroke:#591e1e;stroke-width:0;stroke-linejoin:bevel;stroke-miterlimit:4;stroke-dasharray:none;stroke-dashoffset:0;stroke-opacity:1" />
  <g
     transform="matrix(0.34048313,0,0,0.31301353,6.4739485,36.613954)"
     id="g2397">
    <path
       d="m 108.4,96.7 c 0,-0.2 -0.1,-0.4 -0.1,-0.5 L 96,40.1 c -0.2,-1 -0.6,-1.9 -1.2,-2.7 L 69.4,2.7 C 68.2,1 66.2,0 64.1,0 H 63.9 C 61.8,0 59.8,1 58.6,2.7 L 33.2,37.4 c -0.6,0.8 -1,1.7 -1.2,2.6 L 19.7,96.2 c 0,0.1 0,0.2 -0.1,0.3 -0.2,0.9 -0.1,1.9 0.1,2.8 0.1,0.4 0.3,0.9 0.5,1.3 0.6,1.1 1.4,2 2.4,2.7 L 60.4,127 c 1.1,0.7 2.3,1 3.5,1 H 64 c 1.2,0 2.5,-0.4 3.5,-1 l 36.7,-23 2,-1.4 c 0.6,-0.5 1.1,-1.2 1.5,-1.9 0.2,-0.4 0.4,-0.9 0.5,-1.4 0.3,-0.9 0.3,-1.7 0.2,-2.6 z"
       id="path2383" />
    <path
       style="fill:#ffffff"
       class="st0"
       d="M 103.5,96.6 91.4,41 C 91.3,40.7 91.2,40.5 91.1,40.2 L 65.6,5.5 C 65.5,5.3 65.3,5.2 65.2,5.1 L 64.6,4.8 C 64.4,4.7 64.2,4.7 64,4.7 c -0.2,0 -0.4,0 -0.6,0.1 L 62.8,5.1 C 62.7,5.2 62.5,5.3 62.4,5.5 L 37,40.2 c -0.1,0.1 -0.1,0.2 -0.2,0.2 v 0.1 c -0.1,0.2 -0.1,0.3 -0.2,0.5 L 24.3,97.2 v 0.9 c 0,0.2 0.1,0.3 0.2,0.4 0.2,0.3 0.4,0.6 0.7,0.8 L 62.9,123 c 0.1,0.1 0.3,0.1 0.4,0.2 0.2,0.1 0.4,0.1 0.7,0.1 0.2,0 0.4,0 0.7,-0.1 0.1,0 0.3,-0.1 0.4,-0.2 l 37.4,-23.5 c 0.4,-0.2 0.8,-0.5 1.1,-0.9 0.3,-0.6 0.3,-1.4 -0.1,-2 z M 96.9,84.9 84.6,63.3 89.1,49.2 Z M 66,12.8 87.2,41.8 81.9,58.5 66,30.6 Z M 64,35.2 80.2,63.8 70.1,95.6 H 57.9 L 47.8,63.7 Z M 62,12.8 V 30.6 L 46.1,58.6 40.8,41.8 Z M 39,49.1 43.5,63.3 31.1,85.1 Z m 6.1,19.4 8.6,27.1 h -24 z M 33.2,99.6 H 55 l 5.4,17.1 z M 64,114.7 59.2,99.6 h 9.6 z m 3.6,2 5.4,-17.1 h 21.8 z m 6.7,-21.1 8.6,-27.2 15.4,27.2 z"
       id="path2385" />
  </g>
</svg>
