<?xml version="1.0" encoding="UTF-8" standalone="no"?>
<!-- Generator: Adobe Illustrator 22.1.0, SVG Export Plug-In . SVG Version: 6.00 Build 0)  -->

<svg
   xmlns:dc="http://purl.org/dc/elements/1.1/"
   xmlns:cc="http://creativecommons.org/ns#"
   xmlns:rdf="http://www.w3.org/1999/02/22-rdf-syntax-ns#"
   xmlns:svg="http://www.w3.org/2000/svg"
   xmlns="http://www.w3.org/2000/svg"
   xmlns:sodipodi="http://sodipodi.sourceforge.net/DTD/sodipodi-0.dtd"
   xmlns:inkscape="http://www.inkscape.org/namespaces/inkscape"
   version="1.1"
   id="Layer_1"
   x="0px"
   y="0px"
   viewBox="0 0 163 81.8"
   style="enable-background:new 0 0 163 81.8;"
   xml:space="preserve"
   sodipodi:docname="eth.svg"
   inkscape:version="0.92.4 (5da689c313, 2019-01-14)"><metadata
   id="metadata1182"><rdf:RDF><cc:Work
       rdf:about=""><dc:format>image/svg+xml</dc:format><dc:type
         rdf:resource="http://purl.org/dc/dcmitype/StillImage" /><dc:title></dc:title></cc:Work></rdf:RDF></metadata><defs
   id="defs1180" /><sodipodi:namedview
   pagecolor="#ffffff"
   bordercolor="#666666"
   borderopacity="1"
   objecttolerance="10"
   gridtolerance="10"
   guidetolerance="10"
   inkscape:pageopacity="0"
   inkscape:pageshadow="2"
   inkscape:window-width="1215"
   inkscape:window-height="697"
   id="namedview1178"
   showgrid="false"
   inkscape:zoom="1.7423313"
   inkscape:cx="81.5"
   inkscape:cy="40.900002"
   inkscape:window-x="-8"
   inkscape:window-y="-8"
   inkscape:window-maximized="1"
   inkscape:current-layer="Layer_1" />
<style
   type="text/css"
   id="style1051">
	.st0{fill:#FFFFFF;}
	.st1{fill:#12BFAE;stroke:#252A2E;stroke-width:3;}
	.st2{fill:#808080;}
	.st3{font-family:'Montserrat-SemiBold';}
	.st4{font-size:15.5341px;}
	.st5{fill:none;stroke:#404040;stroke-width:3;}
</style>
<rect
   x="52.9"
   y="3.7"
   class="st0"
   width="107.1"
   height="23.9"
   id="rect1053" />
<circle
   class="st1"
   cx="29.5"
   cy="53"
   r="26.4"
   id="circle1055" />
<g
   transform="translate(9.158 10.025)"
   id="g1165">
	<circle
   class="st0"
   cx="27.6"
   cy="28.5"
   r="1.9"
   id="circle1057" />
	<circle
   class="st0"
   cx="28.1"
   cy="33.6"
   r="1.6"
   id="circle1059" />
	<circle
   class="st0"
   cx="32.4"
   cy="34.2"
   r="1.6"
   id="circle1061" />
	<circle
   class="st0"
   cx="31.9"
   cy="38.6"
   r="1.4"
   id="circle1063" />
	<circle
   class="st0"
   cx="35.4"
   cy="39.9"
   r="1.4"
   id="circle1065" />
	<circle
   class="st0"
   cx="27.6"
   cy="38"
   r="1.4"
   id="circle1067" />
	<circle
   class="st0"
   cx="26.3"
   cy="41.5"
   r="1.2"
   id="circle1069" />
	<circle
   class="st0"
   cx="30.6"
   cy="42.1"
   r="1.2"
   id="circle1071" />
	<circle
   class="st0"
   cx="34.1"
   cy="43.4"
   r="1.2"
   id="circle1073" />
	<circle
   class="st0"
   cx="32.4"
   cy="46.1"
   r="1"
   id="circle1075" />
	<circle
   class="st0"
   cx="28.9"
   cy="44.8"
   r="1"
   id="circle1077" />
	<circle
   class="st0"
   cx="24.6"
   cy="44.2"
   r="1"
   id="circle1079" />
	<circle
   class="st0"
   cx="27"
   cy="46.6"
   r="0.9"
   id="circle1081" />
	<circle
   class="st0"
   cx="30.4"
   cy="48"
   r="0.9"
   id="circle1083" />
	<circle
   class="st0"
   cx="28.5"
   cy="49.1"
   r="0.7"
   id="circle1085" />
	<circle
   class="st0"
   cx="26.6"
   cy="49.7"
   r="0.7"
   id="circle1087" />
	<circle
   class="st0"
   cx="25"
   cy="47.8"
   r="0.8"
   id="circle1089" />
	<circle
   class="st0"
   cx="22.6"
   cy="46"
   r="0.9"
   id="circle1091" />
	<circle
   class="st0"
   cx="29.7"
   cy="55.8"
   r="1.9"
   id="circle1093" />
	<circle
   class="st0"
   cx="25"
   cy="53.8"
   r="1.6"
   id="circle1095" />
	<circle
   class="st0"
   cx="22.3"
   cy="57.2"
   r="1.6"
   id="circle1097" />
	<circle
   class="st0"
   cx="21.5"
   cy="51.1"
   r="1.4"
   id="circle1099" />
	<circle
   class="st0"
   cx="18.8"
   cy="54.6"
   r="1.4"
   id="circle1101" />
	<circle
   class="st0"
   cx="16"
   cy="56.9"
   r="1.4"
   id="circle1103" />
	<circle
   class="st0"
   cx="13.5"
   cy="54"
   r="1.2"
   id="circle1105" />
	<circle
   class="st0"
   cx="16.4"
   cy="51.7"
   r="1.2"
   id="circle1107" />
	<circle
   class="st0"
   cx="19.1"
   cy="48.3"
   r="1.2"
   id="circle1109" />
	<circle
   class="st0"
   cx="15"
   cy="48.9"
   r="1"
   id="circle1111" />
	<circle
   class="st0"
   cx="12.1"
   cy="51.2"
   r="1"
   id="circle1113" />
	<circle
   class="st0"
   cx="11.5"
   cy="48.6"
   r="0.9"
   id="circle1115" />
	<circle
   class="st0"
   cx="11.4"
   cy="46.3"
   r="0.8"
   id="circle1117" />
	<circle
   class="st0"
   cx="11.8"
   cy="44.4"
   r="0.7"
   id="circle1119" />
	<circle
   class="st0"
   cx="14.3"
   cy="44"
   r="0.8"
   id="circle1121" />
	<circle
   class="st0"
   cx="17"
   cy="42.8"
   r="0.9"
   id="circle1123" />
	<circle
   class="st0"
   cx="17.7"
   cy="45.4"
   r="1"
   id="circle1125" />
	<circle
   class="st0"
   cx="14.3"
   cy="46.3"
   r="0.9"
   id="circle1127" />
	<circle
   class="st0"
   cx="5"
   cy="44.1"
   r="1.9"
   id="circle1129" />
	<circle
   class="st0"
   cx="9.2"
   cy="41"
   r="1.7"
   id="circle1131" />
	<circle
   class="st0"
   cx="7.5"
   cy="37"
   r="1.6"
   id="circle1133" />
	<circle
   class="st0"
   cx="11.5"
   cy="35.3"
   r="1.4"
   id="circle1135" />
	<circle
   class="st0"
   cx="13.2"
   cy="39.3"
   r="1.4"
   id="circle1137" />
	<circle
   class="st0"
   cx="16.9"
   cy="38.7"
   r="1.2"
   id="circle1139" />
	<circle
   class="st0"
   cx="20"
   cy="38.8"
   r="1"
   id="circle1141" />
	<circle
   class="st0"
   cx="22.6"
   cy="39.6"
   r="0.9"
   id="circle1143" />
	<circle
   class="st0"
   cx="23"
   cy="36.6"
   r="0.8"
   id="circle1145" />
	<circle
   class="st0"
   cx="21"
   cy="35.5"
   r="0.9"
   id="circle1147" />
	<circle
   class="st0"
   cx="18.4"
   cy="34.8"
   r="1"
   id="circle1149" />
	<circle
   class="st0"
   cx="15.2"
   cy="34.6"
   r="1.2"
   id="circle1151" />
	<circle
   class="st0"
   cx="11"
   cy="31.6"
   r="1.4"
   id="circle1153" />
	<circle
   class="st0"
   cx="14.6"
   cy="31"
   r="1.2"
   id="circle1155" />
	<circle
   class="st0"
   cx="17.8"
   cy="31.1"
   r="1"
   id="circle1157" />
	<circle
   class="st0"
   cx="20.4"
   cy="31.9"
   r="0.9"
   id="circle1159" />
	<circle
   class="st0"
   cx="22.4"
   cy="33"
   r="0.8"
   id="circle1161" />
	<circle
   class="st0"
   cx="23.8"
   cy="34.3"
   r="0.6"
   id="circle1163" />
</g>
<text
   transform="matrix(1 0 0 1 59.7812 20.3035)"
   class="st2 st3 st4"
   id="text1167">great work!</text>

<g
   id="g1175">
	<title
   id="title1169">Asset 1</title>
	<g
   id="Layer_2_2_">
		<g
   id="Layer_1-2_1_">
			<path
   class="st5"
   d="M57.7,38.5l-0.2,0.2l-1.1,0.8L57.7,38.5z M58.4,28.5h-2.3c-2.2,0-3.9-1.8-3.9-3.9V6.1c0-2.2,1.8-3.9,3.9-3.9     h101.4c2.2,0,3.9,1.8,3.9,3.9v18.5c0,2.2-1.8,3.9-3.9,3.9H70.9l-13.2,10C61.7,35.3,59.9,30.9,58.4,28.5L58.4,28.5z"
   id="path1171" />
		</g>
	</g>
</g>
<g
   id="g1743"
   style="fill:none;fill-rule:evenodd"
   transform="matrix(1.5739437,0,0,1.556008,4.0880275,27.919723)"><circle
     id="circle1727"
     r="16"
     cy="16"
     cx="16"
     style="fill:#627eea" /><g
     id="g1741"
     style="fill:#ffffff;fill-rule:nonzero"><path
       id="path1729"
       d="m 16.498,4 v 8.87 l 7.497,3.35 z"
       inkscape:connector-curvature="0"
       style="fill-opacity:0.60199998" /><path
       id="path1731"
       d="M 16.498,4 9,16.22 16.498,12.87 Z"
       inkscape:connector-curvature="0" /><path
       id="path1733"
       d="m 16.498,21.968 v 6.027 L 24,17.616 Z"
       inkscape:connector-curvature="0"
       style="fill-opacity:0.60199998" /><path
       id="path1735"
       d="M 16.498,27.995 V 21.967 L 9,17.616 Z"
       inkscape:connector-curvature="0" /><path
       id="path1737"
       d="M 16.498,20.573 23.995,16.22 16.498,12.872 Z"
       inkscape:connector-curvature="0"
       style="fill-opacity:0.2" /><path
       id="path1739"
       d="m 9,16.22 7.498,4.353 v -7.701 z"
       inkscape:connector-curvature="0"
       style="fill-opacity:0.60199998" /></g></g></svg>